<svg xmlns="http://www.w3.org/2000/svg" xmlns:xlink="http://www.w3.org/1999/xlink" width="95" height="95" viewBox="0 0 95 95"><defs><clipPath id="a"><rect width="95" height="95" fill="#e8e8e8"/></clipPath></defs><g clip-path="url(#a)"><g transform="translate(0 0.769)"><path d="M80.059,30.077l-.016-12.032L62.21.256H34.252L16.193,17.988l.025,12.069A132.41,132.41,0,0,0,.416,36.7L.338,82.854l5.3,3.445,7-4.222,3.224-6.255,18.428,17.9,27.825-.075,14.3-14.225a3.528,3.528,0,0,0,5.921-.331c3.782,2.851,12.991,10.269,12.991,10.269l.011-52.777a140.248,140.248,0,0,0-15.278-6.5" transform="translate(-0.338 -0.256)" fill="#fff"/><path d="M45.1,26.659l-2.516,2.473V45.923l2.73,2.595h4.591l.034,15.307H46.253v-10.3H42.589V64.781l2.522,2.48,6.132.039,2.49-2.519-.07-17.954-2.687-2.576-4.632,0-.012-13.78,3.707.016.009,8.836,3.636-.006.011-10.2-2.47-2.461H45.1ZM54.5,32.048l.007,3.506c1,.1,2.527.268,2.527.268l0,23.688c1.247.181,2.548.34,3.681.541l-.115-23.793s1.391.2,2.659.414V33.132c-3.021-.534-5.72-.818-8.758-1.086Zm-16.98.439c-1.586.212-3.183.4-4.784.7L30.745,35.8l.03,23.268,1.8,1.621c2.038-.491,3.564-.739,5.531-1.041l1.65-2.169.074-22.721-2.314-2.274Zm28.774,1.2-2.218,2.03,0,25.06c1.12.291,2.224.519,3.307.867V49.158l2.166.618V62.392c1.119.413,2.214.771,3.284,1.244V38.149l-1.9-3.418c-1.614-.435-3.03-.694-4.644-1.039v0Zm-37.351.222c-1.114.255-2.229.47-3.341.769l-.069,28.075c1.123-.377,2.152-.733,3.4-1.106l.009-27.737Zm-5.171,1.26c-1.156.334-2.308.587-3.46,1.013V47.6l-2.252.863-.04-11.586c-1.163.419-2.246.732-3.4,1.2l-.005,30.116c1.221-.843,2.162-1.3,3.631-2.186l-.035-13.761s1.3-.565,2.294-.9l.034,13.479c1.119-.544,2.053-.9,3.226-1.4l0-28.247Zm50.188.363v0l.013,3.654c.256.073,2.712.837,2.712.837l.006,25.256a33.416,33.416,0,0,1,3.342,1.875l.01-25.958s2.992,1.157,3.208,1.253v-3.77a94.225,94.225,0,0,0-9.292-3.148Zm-37.611.8.089,20.052-2.338.437.077-20.175,2.172-.314Zm31.07,1.182h0l2.059.511-.005,8.036-2.054-.517,0-8.03Zm16.949,1.61.009,0v0l-.009,0Zm.009,0L84.467,77.4c2.494,1.9,6.156,4.8,8.443,6.739V79.551c-1.565-1.266-4.78-3.859-4.78-3.859V61.728s3.31,1.8,4.78,2.694V60.066c-1.436-.9-4.926-2.752-4.926-2.752l.009-12.7s3.241,1.611,4.926,2.562V43.146a85.873,85.873,0,0,0-8.544-4.013ZM9.9,39.905c-1.793.84-3.511,1.623-5.231,2.586L2.914,45.837V81.564l2.774,1.859c.463-.289,4.817-2.928,5.094-3.081l1.629-3.49.034-35.084L9.9,39.906Zm-.872,4.262,0,33.152L6.476,79.05,6.492,45.5l2.533-1.337Z" transform="translate(-0.338 -0.256)"/><path d="M35.24,2.67,18.61,19l.027,12.813a92.667,92.667,0,0,0-15.67,6.356v2.7C8.5,37.674,16.763,34.916,21.25,33.6V20.2L36.381,5.323l23.708-.005L75.043,20.1l-.018,13.45a95.4,95.4,0,0,1,17.9,7.172v-2.7A87.936,87.936,0,0,0,77.65,31.83l-.017-12.783L61.215,2.668H35.243ZM43.109,21.6l-5.55,5.434V30.26c.944-.121,1.676-.155,2.611-.247V28.1l3.976-3.88h8.073L56.1,28.085v1.884c.935.088,1.7.2,2.641.322V27.041L53.323,21.6H43.108ZM56.177,61.442v4.332L52.3,69.658l-8.182.013-3.941-3.83V61.46c-.95.123-1.688.144-2.616.307v5.145l5.477,5.367,10.263.076,5.46-5.5.013-5.022c-.928-.159-1.647-.268-2.6-.386ZM21.256,66.67a40.506,40.506,0,0,0-6.636,3.956v3.11a37.652,37.652,0,0,1,3.988-2.962v3.951L35.283,91.3l25.829.025L77.632,74.8V70.924a37.321,37.321,0,0,1,5.056,3.553V71.422a42.65,42.65,0,0,0-7.639-4.752l-.015,6.967L60.1,88.707l-23.794-.013L21.255,73.721V66.67Z" transform="translate(-0.338 -0.256)" fill="#b0b7bc"/><path d="M37.349,7.744l-13.7,13.492v11.7A93.633,93.633,0,0,1,35.15,30.6V25.978L42.094,19.2H54.332l6.811,6.819v4.544a93.56,93.56,0,0,1,11.481,2.356V21.3L59.071,7.744H37.349ZM61.161,62.177l-.01,5.687L54.4,74.775l-12.357-.089-6.9-6.806V62.213a57.984,57.984,0,0,0-11.472,3.432v7.047L37.3,86.112l21.826.17L72.632,72.629l0-6.994a56.843,56.843,0,0,0-11.472-3.459Z" transform="translate(-0.338 -0.256)" fill="#ce0f3d"/></g></g></svg>